<svg width="102" height="24" viewBox="0 0 102 24" fill="none" xmlns="http://www.w3.org/2000/svg">
<g clip-path="url(#clip0_993_161)">
<g clip-path="url(#clip1_993_161)">
<path d="M23.04 0H0.96C0.429 0 0 0.429 0 0.96V23.04C0 23.571 0.429 24 0.96 24H23.04C23.571 24 24 23.571 24 23.04V0.96C24 0.429 23.571 0 23.04 0ZM20.268 7.005H18.351C16.848 7.005 16.557 7.719 16.557 8.769V11.082H20.145L19.677 14.703H16.557V24H12.816V14.706H9.687V11.082H12.816V8.412C12.816 5.313 14.709 3.624 17.475 3.624C18.801 3.624 19.938 3.723 20.271 3.768V7.005H20.268Z" fill="#00A0C1"/>
</g>
<g clip-path="url(#clip2_993_161)">
<path d="M51.0016 5.84744C47.5966 5.84744 44.8486 8.59544 44.8486 12.0004C44.8486 15.4054 47.5966 18.1534 51.0016 18.1534C54.4066 18.1534 57.1546 15.4054 57.1546 12.0004C57.1546 8.59544 54.4066 5.84744 51.0016 5.84744ZM51.0016 15.9994C48.7996 15.9994 47.0026 14.2024 47.0026 12.0004C47.0026 9.79844 48.7996 8.00144 51.0016 8.00144C53.2036 8.00144 55.0006 9.79844 55.0006 12.0004C55.0006 14.2024 53.2036 15.9994 51.0016 15.9994ZM57.4066 4.16144C56.6116 4.16144 55.9696 4.80344 55.9696 5.59844C55.9696 6.39344 56.6116 7.03544 57.4066 7.03544C58.2016 7.03544 58.8436 6.39644 58.8436 5.59844C58.8438 5.40966 58.8068 5.22269 58.7347 5.04824C58.6625 4.87379 58.5567 4.71528 58.4232 4.5818C58.2897 4.44831 58.1312 4.34247 57.9568 4.27034C57.7823 4.19821 57.5954 4.1612 57.4066 4.16144ZM62.9956 12.0004C62.9956 10.3444 63.0106 8.70344 62.9176 7.05044C62.8246 5.13044 62.3866 3.42644 60.9826 2.02244C59.5756 0.615437 57.8746 0.180437 55.9546 0.0874372C54.2986 -0.00556279 52.6576 0.00943725 51.0046 0.00943725C49.3486 0.00943725 47.7076 -0.00556279 46.0546 0.0874372C44.1346 0.180437 42.4306 0.618437 41.0266 2.02244C39.6196 3.42944 39.1846 5.13044 39.0916 7.05044C38.9986 8.70644 39.0136 10.3474 39.0136 12.0004C39.0136 13.6534 38.9986 15.2974 39.0916 16.9504C39.1846 18.8704 39.6226 20.5744 41.0266 21.9784C42.4336 23.3854 44.1346 23.8204 46.0546 23.9134C47.7106 24.0064 49.3516 23.9914 51.0046 23.9914C52.6606 23.9914 54.3016 24.0064 55.9546 23.9134C57.8746 23.8204 59.5786 23.3824 60.9826 21.9784C62.3896 20.5714 62.8246 18.8704 62.9176 16.9504C63.0136 15.2974 62.9956 13.6564 62.9956 12.0004ZM60.3556 19.0744C60.1366 19.6204 59.8726 20.0284 59.4496 20.4484C59.0266 20.8714 58.6216 21.1354 58.0756 21.3544C56.4976 21.9814 52.7506 21.8404 51.0016 21.8404C49.2526 21.8404 45.5026 21.9814 43.9246 21.3574C43.3786 21.1384 42.9706 20.8744 42.5506 20.4514C42.1276 20.0284 41.8636 19.6234 41.6446 19.0774C41.0206 17.4964 41.1616 13.7494 41.1616 12.0004C41.1616 10.2514 41.0206 6.50144 41.6446 4.92344C41.8636 4.37744 42.1276 3.96944 42.5506 3.54944C42.9736 3.12944 43.3786 2.86244 43.9246 2.64344C45.5026 2.01944 49.2526 2.16044 51.0016 2.16044C52.7506 2.16044 56.5006 2.01944 58.0786 2.64344C58.6246 2.86244 59.0326 3.12644 59.4526 3.54944C59.8756 3.97244 60.1396 4.37744 60.3586 4.92344C60.9826 6.50144 60.8416 10.2514 60.8416 12.0004C60.8416 13.7494 60.9826 17.4964 60.3556 19.0744Z" fill="#00A0C1"/>
</g>
<g clip-path="url(#clip3_993_161)">
<path d="M102 4.46548C101.119 4.85141 100.159 5.12917 99.1711 5.23735C100.197 4.61879 100.965 3.64156 101.332 2.48901C100.369 3.07022 99.3145 3.47778 98.2146 3.6936C97.7549 3.19488 97.1989 2.79758 96.5813 2.52645C95.9636 2.25532 95.2976 2.11618 94.6247 2.11769C91.902 2.11769 89.7123 4.3573 89.7123 7.10564C89.7123 7.49158 89.7584 7.87752 89.8333 8.24884C85.7565 8.03248 82.1205 6.05601 79.7032 3.0299C79.2627 3.79335 79.0319 4.66261 79.0348 5.54727C79.0348 7.27814 79.902 8.80435 81.2244 9.70195C80.4451 9.6708 79.684 9.45342 79.0031 9.06749V9.12889C79.0031 11.5527 80.6914 13.5613 82.9416 14.0233C82.5191 14.1347 82.0845 14.1916 81.648 14.1929C81.3282 14.1929 81.0256 14.1607 80.7202 14.1168C81.3426 16.0933 83.1548 17.5289 85.3128 17.5757C83.6244 18.9177 81.5097 19.7071 79.2134 19.7071C78.8014 19.7071 78.4211 19.6925 78.0264 19.6457C80.2045 21.0637 82.7889 21.8824 85.5721 21.8824C94.6074 21.8824 99.5514 14.2864 99.5514 7.69332C99.5514 7.47696 99.5514 7.2606 99.537 7.04424C100.494 6.33377 101.332 5.45371 102 4.46548Z" fill="#00A0C1"/>
</g>
</g>
<defs>
<clipPath id="clip0_993_161">
<rect width="102" height="24" fill="white"/>
</clipPath>
<clipPath id="clip1_993_161">
<rect width="24" height="24" fill="white"/>
</clipPath>
<clipPath id="clip2_993_161">
<rect width="24" height="24" fill="white" transform="translate(39)"/>
</clipPath>
<clipPath id="clip3_993_161">
<rect width="24" height="19.7647" fill="white" transform="translate(78 2.11768)"/>
</clipPath>
</defs>
</svg>
