<svg width="111" height="22" viewBox="0 0 111 22" fill="none" xmlns="http://www.w3.org/2000/svg">
<g clip-path="url(#clip0_964_14600)">
<path d="M20.1306 8.41256C20.0729 8.24274 19.9668 8.09353 19.8253 7.98335C19.6838 7.87316 19.5132 7.80681 19.3344 7.79251L14.1053 7.377L11.8424 2.36798C11.7704 2.20665 11.6532 2.06963 11.5049 1.97344C11.3567 1.87726 11.1838 1.82602 11.0071 1.82593C10.8304 1.82583 10.6575 1.87687 10.5092 1.9729C10.3608 2.06892 10.2435 2.20582 10.1712 2.36707L7.90842 7.377L2.67927 7.79251C2.50358 7.80642 2.33562 7.87066 2.19548 7.97754C2.05534 8.08442 1.94896 8.2294 1.88907 8.39516C1.82917 8.56091 1.8183 8.74041 1.85774 8.91218C1.89719 9.08395 1.98529 9.24072 2.1115 9.36373L5.97581 13.1308L4.60913 19.0488C4.56763 19.2279 4.58093 19.4154 4.6473 19.5869C4.71368 19.7584 4.83006 19.9059 4.98135 20.0105C5.13263 20.115 5.31184 20.1716 5.49571 20.173C5.67959 20.1744 5.85964 20.1205 6.0125 20.0183L11.0068 16.6888L16.0012 20.0183C16.1574 20.1221 16.3417 20.1755 16.5292 20.1713C16.7167 20.1672 16.8984 20.1058 17.0499 19.9953C17.2015 19.8848 17.3156 19.7306 17.3768 19.5533C17.4381 19.3761 17.4436 19.1843 17.3926 19.0039L15.715 13.1336L19.8756 9.38941C20.148 9.14359 20.248 8.76019 20.1306 8.41256Z" fill="#F3CD03"/>
<path d="M42.1452 8.41256C42.0876 8.24274 41.9814 8.09353 41.84 7.98335C41.6985 7.87316 41.5278 7.80681 41.3491 7.79251L36.1199 7.377L33.8571 2.36798C33.785 2.20665 33.6678 2.06963 33.5196 1.97344C33.3714 1.87726 33.1985 1.82602 33.0218 1.82593C32.8451 1.82583 32.6721 1.87687 32.5238 1.9729C32.3755 2.06892 32.2581 2.20582 32.1859 2.36707L29.9231 7.377L24.6939 7.79251C24.5182 7.80642 24.3503 7.87066 24.2101 7.97754C24.07 8.08442 23.9636 8.2294 23.9037 8.39516C23.8438 8.56091 23.8329 8.74041 23.8724 8.91218C23.9118 9.08395 23.9999 9.24072 24.1262 9.36373L27.9905 13.1308L26.6238 19.0488C26.5823 19.2279 26.5956 19.4154 26.662 19.5869C26.7283 19.7584 26.8447 19.9059 26.996 20.0105C27.1473 20.115 27.3265 20.1716 27.5104 20.173C27.6942 20.1744 27.8743 20.1205 28.0271 20.0183L33.0215 16.6888L38.0158 20.0183C38.1721 20.1221 38.3563 20.1755 38.5438 20.1713C38.7313 20.1672 38.913 20.1058 39.0646 19.9953C39.2161 19.8848 39.3302 19.7306 39.3915 19.5533C39.4527 19.3761 39.4582 19.1843 39.4073 19.0039L37.7296 13.1336L41.8902 9.38941C42.1626 9.14359 42.2626 8.76019 42.1452 8.41256Z" fill="#F3CD03"/>
<path d="M64.1555 8.41256C64.0978 8.24274 63.9917 8.09353 63.8502 7.98335C63.7087 7.87316 63.5381 7.80681 63.3593 7.79251L58.1302 7.377L55.8673 2.36798C55.7953 2.20665 55.6781 2.06963 55.5298 1.97344C55.3816 1.87726 55.2087 1.82602 55.032 1.82593C54.8553 1.82583 54.6824 1.87687 54.5341 1.9729C54.3857 2.06892 54.2684 2.20582 54.1961 2.36707L51.9333 7.377L46.7042 7.79251C46.5285 7.80642 46.3605 7.87066 46.2204 7.97754C46.0802 8.08442 45.9739 8.2294 45.914 8.39516C45.8541 8.56091 45.8432 8.74041 45.8826 8.91218C45.9221 9.08395 46.0102 9.24072 46.1364 9.36373L50.0007 13.1308L48.634 19.0488C48.5925 19.2279 48.6058 19.4154 48.6722 19.5869C48.7386 19.7584 48.855 19.9059 49.0062 20.0105C49.1575 20.115 49.3367 20.1716 49.5206 20.173C49.7045 20.1744 49.8845 20.1205 50.0374 20.0183L55.0317 16.6888L60.0261 20.0183C60.1823 20.1221 60.3666 20.1755 60.5541 20.1713C60.7416 20.1672 60.9233 20.1058 61.0748 19.9953C61.2264 19.8848 61.3405 19.7306 61.4017 19.5533C61.463 19.3761 61.4685 19.1843 61.4175 19.0039L59.7399 13.1336L63.9005 9.38941C64.1729 9.14359 64.2729 8.76019 64.1555 8.41256Z" fill="#F3CD03"/>
<path d="M86.1716 8.41256C86.1139 8.24274 86.0078 8.09353 85.8663 7.98335C85.7248 7.87316 85.5542 7.80681 85.3754 7.79251L80.1463 7.377L77.8835 2.36798C77.8114 2.20665 77.6942 2.06963 77.546 1.97344C77.3977 1.87726 77.2248 1.82602 77.0482 1.82593C76.8715 1.82583 76.6985 1.87687 76.5502 1.9729C76.4019 2.06892 76.2845 2.20582 76.2123 2.36707L73.9494 7.377L68.7203 7.79251C68.5446 7.80642 68.3766 7.87066 68.2365 7.97754C68.0964 8.08442 67.99 8.2294 67.9301 8.39516C67.8702 8.56091 67.8593 8.74041 67.8988 8.91218C67.9382 9.08395 68.0263 9.24072 68.1525 9.36373L72.0168 13.1308L70.6501 19.0488C70.6086 19.2279 70.6219 19.4154 70.6883 19.5869C70.7547 19.7584 70.8711 19.9059 71.0224 20.0105C71.1736 20.115 71.3529 20.1716 71.5367 20.173C71.7206 20.1744 71.9007 20.1205 72.0535 20.0183L77.0479 16.6888L82.0422 20.0183C82.1984 20.1221 82.3827 20.1755 82.5702 20.1713C82.7577 20.1672 82.9394 20.1058 83.091 19.9953C83.2425 19.8848 83.3566 19.7306 83.4178 19.5533C83.4791 19.3761 83.4846 19.1843 83.4336 19.0039L81.756 13.1336L85.9166 9.38941C86.189 9.14359 86.289 8.76019 86.1716 8.41256Z" fill="#F3CD03"/>
<path d="M94.0324 13.1308L92.6657 19.0488C92.6234 19.228 92.6361 19.4158 92.7022 19.5877C92.7682 19.7596 92.8846 19.9075 93.0361 20.0122C93.1875 20.1169 93.367 20.1735 93.5512 20.1746C93.7353 20.1757 93.9155 20.1212 94.0682 20.0183L99.0625 16.6888L104.057 20.0183C104.213 20.1221 104.397 20.1755 104.585 20.1714C104.772 20.1673 104.954 20.1058 105.106 19.9953C105.257 19.8849 105.371 19.7306 105.432 19.5534C105.494 19.3761 105.499 19.1844 105.448 19.0039L103.771 13.1336L107.931 9.38944C108.064 9.26946 108.16 9.11304 108.205 8.93955C108.25 8.76605 108.244 8.58308 108.186 8.41327C108.129 8.24345 108.022 8.09424 107.881 7.98408C107.739 7.87392 107.569 7.80764 107.39 7.79345L102.161 7.37703L99.8981 2.36801C99.826 2.20672 99.7087 2.06976 99.5604 1.97366C99.4121 1.87755 99.2392 1.82642 99.0625 1.82642C98.8858 1.82642 98.7129 1.87755 98.5646 1.97366C98.4163 2.06976 98.2991 2.20672 98.2269 2.36801L95.9641 7.37703L90.7349 7.79254C90.5592 7.80645 90.3913 7.87069 90.2511 7.97757C90.111 8.08445 90.0046 8.22943 89.9447 8.39518C89.8848 8.56094 89.874 8.74044 89.9134 8.91221C89.9529 9.08398 90.041 9.24074 90.1672 9.36376L94.0324 13.1308ZM96.6493 9.16288C96.813 9.14998 96.9702 9.09328 97.1045 8.99871C97.2388 8.90414 97.3451 8.77519 97.4124 8.62538L99.0625 4.97387L100.713 8.62538C100.78 8.77519 100.886 8.90414 101.021 8.99871C101.155 9.09328 101.312 9.14998 101.476 9.16288L105.119 9.45181L102.119 12.1521C101.858 12.387 101.755 12.7484 101.85 13.0859L102.999 17.108L99.5725 14.8231C99.4221 14.7222 99.245 14.6683 99.0639 14.6683C98.8827 14.6683 98.7057 14.7222 98.5553 14.8231L94.9744 17.2107L95.9375 13.0409C95.9728 12.8876 95.9681 12.7277 95.9237 12.5767C95.8794 12.4257 95.7969 12.2887 95.6843 12.1787L92.8978 9.4619L96.6493 9.16288Z" fill="#F3CD03"/>
</g>
<defs>
<clipPath id="clip0_964_14600">
<rect width="110.068" height="22" fill="white"/>
</clipPath>
</defs>
</svg>
